<?xml version="1.0" encoding="iso-8859-1"?>
<!-- Generator: Adobe Illustrator 19.0.0, SVG Export Plug-In . SVG Version: 6.00 Build 0)  -->
<svg version="1.1" id="Capa_1" xmlns="http://www.w3.org/2000/svg" xmlns:xlink="http://www.w3.org/1999/xlink" x="0px" y="0px"
	 viewBox="0 0 512 512" style="enable-background:new 0 0 512 512;" xml:space="preserve">
<g>
	<g>
		<path d="M494.941,425.784c-27.647,11.64-62.904,18.05-99.275,18.05c-36.372,0-71.629-6.41-99.275-18.05
			c-6.271-2.64-11.958-5.483-17.059-8.496v24.295c0,35.212,60.304,51.25,116.334,51.25c56.029,0,116.333-16.038,116.333-51.25
			v-24.295C506.899,420.301,501.211,423.144,494.941,425.784z"/>
	</g>
</g>
<g>
	<g>
		<path d="M484.137,350.735c-23.946,7.802-55.366,12.099-88.471,12.099c-33.105,0-64.525-4.297-88.472-12.099
			c-10.734-3.497-20.057-7.744-27.862-12.671v39.969c2.246,4.231,9.616,12.067,28.699,20.101
			c23.698,9.977,55.64,15.699,87.635,15.699c31.995,0,63.937-5.722,87.635-15.699c19.082-8.034,26.453-15.869,28.698-20.101v-39.969
			C504.194,342.992,494.871,347.238,484.137,350.735z"/>
	</g>
</g>
<g>
	<g>
		<path d="M410.414,245.486V136.132h-72.208c-7.801-13.894-21.102-24.303-36.933-28.248c-2.941-22.906-13.492-43.95-30.439-60.279
			c-19.031-18.338-44.181-28.438-70.817-28.438S148.231,29.266,129.2,47.605c-16.946,16.33-27.497,37.373-30.438,60.279
			c-25.469,6.346-44.396,29.415-44.396,56.82c0,32.285,26.266,58.55,58.551,58.55h4.673v44.449H16.762v135.095h231.142V267.704
			H147.588v-44.449h139.528c31.806,0,57.751-25.497,58.514-57.123h34.782v79.375c-51.187,2.276-101.081,16.1-101.081,43.493
			c0,30.116,60.304,43.833,116.334,43.833C451.696,332.834,512,319.117,512,289.001C512,261.517,461.777,247.693,410.414,245.486z
			 M156.57,300.895l21.213,21.214l-45.195,45.194l-45.194-45.194l21.213-21.213l8.981,8.981v-42.172h30v42.172L156.57,300.895z"/>
	</g>
</g>
<g>
	<g>
		<rect y="432.801" width="264.67" height="49"/>
	</g>
</g>
<g>
</g>
<g>
</g>
<g>
</g>
<g>
</g>
<g>
</g>
<g>
</g>
<g>
</g>
<g>
</g>
<g>
</g>
<g>
</g>
<g>
</g>
<g>
</g>
<g>
</g>
<g>
</g>
<g>
</g>
</svg>
